# xmcd CD database file
#
# Track frame offsets:
#	150
#	19877
#	35445
#	53347
#	72235
#	81525
#	102667
#	122522
#	145355
#	166025
#
# Disc length: 2632 seconds
#
# Revision: 3
# Processed by: cddbd v1.5.2PL0 Copyright (c) Steve Scherf et al.
# Submitted via: CDex 1.51
#
DISCID=830a460a
DTITLE=Tracy Chapman - Matters Of The Heart
DYEAR=1992
DGENRE=Folk
TTITLE0=Bang Bang Bang
TTITLE1=So
TTITLE2=I Used To Be A Sailor
TTITLE3=The Love That You Had
TTITLE4=Woman's Work
TTITLE5=If These Are The Things
TTITLE6=Short Supply
TTITLE7=Dreaming On A World
TTITLE8=Open Arms
TTITLE9=Matters Of The Heart
EXTD=YEAR: 1992
EXTT0=
EXTT1=
EXTT2=
EXTT3=
EXTT4=
EXTT5=
EXTT6=
EXTT7=
EXTT8=
EXTT9=
PLAYORDER=
